# xmcd
#
# Track frame offsets:
#	150
#	15595
#	26392
#	39062
#	48757
#	59335
#	69647
#	79210
#	94945
#	110620
#	122665
#	138862
#	152750
#	167775
#	189045
#	201452
#
# Disc length: 2846
#
# Revision: 1
# Processed by: cddbd v1.5.1PL0 Copyright (c) Steve Scherf et al.
# Submitted via: ExactAudioCopy v0.90b4
# Normalized: r0:DSETVAR1,TDELIM( - )
#
DISCID=ca0b1c10
DTITLE=Various Artist - Soul Greats - Disc 3
DYEAR=1997
DGENRE=Soul
TTITLE0=James Brown - I Got You (I Feel Good) (live)
TTITLE1=The Impressions - We're A Winner
TTITLE2=Etta James - Something's Got A Hold On Me
TTITLE3=Gene Allison - You Can Make It Happen If You Try
TTITLE4=Doris Troy - Just One Look
TTITLE5=The Isley Brothers - Nobody But Me
TTITLE6=Solomon Burke - Got To Get You Off My Mind
TTITLE7=Carol Douglas - Doctor's Orders
TTITLE8=Al Wilson - Show And Tell
TTITLE9=The Tymes - You Little Trustmaker
TTITLE10=Harold Melvin and The Blue Notes - The Love I Lost (Part I)
TTITLE11=The Fuzz - I Love You For All Seasons
TTITLE12=Latimore - Let's Straighten It Out
TTITLE13=The Edwin Hawkins Singers - Oh Happy Day
TTITLE14=Bobby Womack - Lookin' For A Love
TTITLE15=Tyrone Davis - Turn Back The Hands Of Time
EXTD=
EXTT0=
EXTT1=
EXTT2=
EXTT3=
EXTT4=
EXTT5=
EXTT6=
EXTT7=
EXTT8=
EXTT9=
EXTT10=
EXTT11=
EXTT12=
EXTT13=
EXTT14=
EXTT15=
PLAYORDER=
